<svg width="32" height="30" viewBox="0 0 32 30" fill="none" xmlns="http://www.w3.org/2000/svg">
<path d="M14.6668 14.05L4.00016 8.06059V20.0395H17.3335V22.4352H4.00016C3.26683 22.4352 2.63927 22.2009 2.1175 21.7321C1.59483 21.2625 1.3335 20.6983 1.3335 20.0395V5.66482C1.3335 5.00598 1.59483 4.44177 2.1175 3.9722C2.63927 3.50343 3.26683 3.26904 4.00016 3.26904H25.3335C26.0668 3.26904 26.6948 3.50343 27.2175 3.9722C27.7393 4.44177 28.0002 5.00598 28.0002 5.66482V11.6543H25.3335V8.06059L14.6668 14.05ZM14.6668 11.6543L25.3335 5.66482H4.00016L14.6668 11.6543ZM25.3335 27.2268C23.8668 27.2268 22.6113 26.7576 21.5668 25.8193C20.5224 24.8809 20.0002 23.7529 20.0002 22.4352V17.0447C20.0002 16.2062 20.3224 15.4975 20.9668 14.9185C21.6113 14.3395 22.4002 14.05 23.3335 14.05C24.2668 14.05 25.0557 14.3395 25.7002 14.9185C26.3446 15.4975 26.6668 16.2062 26.6668 17.0447V22.4352H24.0002V17.0447C24.0002 16.885 23.9335 16.7453 23.8002 16.6255C23.6668 16.5057 23.5113 16.4458 23.3335 16.4458C23.1557 16.4458 23.0002 16.5057 22.8668 16.6255C22.7335 16.7453 22.6668 16.885 22.6668 17.0447V22.4352C22.6668 23.0941 22.9277 23.6583 23.4495 24.1279C23.9722 24.5966 24.6002 24.831 25.3335 24.831C26.0668 24.831 26.6948 24.5966 27.2175 24.1279C27.7393 23.6583 28.0002 23.0941 28.0002 22.4352V17.6437H30.6668V22.4352C30.6668 23.7529 30.1446 24.8809 29.1002 25.8193C28.0557 26.7576 26.8002 27.2268 25.3335 27.2268ZM4.00016 8.06059V5.66482V20.0395V12.8521V8.06059Z" fill="black"/>
</svg>
