<svg width="236" height="236" viewBox="0 0 236 236" fill="none" xmlns="http://www.w3.org/2000/svg">
<path d="M170.8 111.808C170.8 104.584 164.816 100.8 156.72 100.8H133.136C134.896 94.608 135.6 88.76 135.6 83.6C135.6 63.648 129.968 59.52 125.04 59.52C121.872 59.52 119.408 59.864 116.24 61.584C115.184 62.272 114.832 62.96 114.48 63.992L110.96 82.568C107.088 92.2 97.5841 100.8 89.8401 106.648V155.84C92.6561 155.84 95.4721 157.216 98.9921 158.936C102.864 160.656 106.736 162.72 110.96 162.72H144.4C151.44 162.72 156.72 157.216 156.72 152.4C156.72 151.368 156.72 150.68 156.368 149.992C160.592 148.272 163.76 144.832 163.76 140.36C163.76 138.296 163.408 136.576 162.704 134.856C165.52 133.136 167.984 130.04 167.984 126.6C167.984 124.536 166.928 122.472 165.872 120.752C168.688 118.688 170.8 115.248 170.8 111.808ZM163.408 111.808C163.408 116.28 158.832 116.624 158.128 118.688C157.424 121.096 160.944 121.784 160.944 125.912C160.944 130.04 155.664 130.04 154.96 132.448C154.256 135.2 156.72 135.888 156.72 140.016V140.704C156.016 144.144 150.736 144.488 149.68 145.864C148.624 147.584 149.68 148.272 149.68 152.056C149.68 154.12 147.216 155.496 144.4 155.496H110.96C108.144 155.496 105.328 154.12 101.808 152.4C98.9921 151.024 96.1761 149.648 93.3601 148.96V112.84C102.16 106.304 113.424 96.672 117.648 84.632V83.944L120.816 66.744C122.224 66.4 123.28 66.4 125.04 66.4C125.744 66.4 128.56 70.528 128.56 83.6C128.56 88.76 127.504 94.264 125.744 100.8H125.04C122.928 100.8 121.52 102.176 121.52 104.24C121.52 106.304 122.928 107.68 125.04 107.68H156.72C160.24 107.68 163.408 109.4 163.408 111.808Z" fill="black"/>
<path d="M86.3199 162.72H65.1999C61.3279 162.72 58.1599 159.624 58.1599 155.84V107.68C58.1599 103.896 61.3279 100.8 65.1999 100.8H86.3199C90.1919 100.8 93.3599 103.896 93.3599 107.68V155.84C93.3599 159.624 90.1919 162.72 86.3199 162.72ZM65.1999 107.68V155.84H86.3199V107.68H65.1999Z" fill="black"/>
<rect x="0.5" y="0.5" width="235" height="235" rx="69.5" stroke="black"/>
</svg>
