<svg width="236" height="236" viewBox="0 0 236 236" fill="none" xmlns="http://www.w3.org/2000/svg">
<g clip-path="url(#clip0_266_99)">
<path d="M167.219 173C165.408 173.005 163.614 172.654 161.942 171.967C160.269 171.279 158.75 170.27 157.473 168.996L141.219 152.871C136.607 153.881 131.803 153.605 127.339 152.072C122.875 150.54 118.926 147.811 115.93 144.188C112.934 140.565 111.008 136.19 110.365 131.548C109.722 126.905 110.387 122.177 112.287 117.887L114.602 112.652L130.966 128.887C131.716 129.597 132.712 129.993 133.748 129.993C134.784 129.993 135.78 129.597 136.53 128.887C136.896 128.524 137.187 128.094 137.385 127.62C137.584 127.147 137.686 126.639 137.686 126.126C137.687 125.613 137.585 125.105 137.387 124.631C137.19 124.157 136.9 123.726 136.534 123.363L120.17 107.125L125.446 104.828C129.771 102.944 134.537 102.286 139.216 102.924C143.896 103.563 148.305 105.475 151.957 108.447C155.608 111.42 158.359 115.337 159.904 119.765C161.449 124.193 161.728 128.959 160.71 133.535L176.964 149.66C178.892 151.572 180.204 154.008 180.736 156.661C181.268 159.313 180.995 162.062 179.952 164.56C178.909 167.059 177.142 169.194 174.876 170.696C172.609 172.198 169.945 173 167.219 173ZM143.476 144.059L163.045 163.473C164.169 164.538 165.664 165.132 167.219 165.132C168.773 165.132 170.268 164.538 171.392 163.473C171.942 162.929 172.377 162.283 172.675 161.573C172.972 160.862 173.125 160.1 173.125 159.33C173.125 158.56 172.972 157.798 172.675 157.088C172.377 156.377 171.942 155.731 171.392 155.187L151.827 135.773L152.567 133.496C153.432 130.859 153.655 128.056 153.218 125.317C152.781 122.577 151.696 119.98 150.053 117.737C148.409 115.493 146.253 113.668 143.762 112.41C141.271 111.152 138.514 110.498 135.719 110.5C135.388 110.5 135.06 110.509 134.734 110.527L142.105 117.84C144.32 120.037 145.564 123.018 145.564 126.125C145.564 129.232 144.32 132.213 142.105 134.41C139.855 136.542 136.863 137.731 133.752 137.731C130.641 137.731 127.649 136.542 125.399 134.41L118.028 127.098C118.009 127.423 118 127.75 118 128.078C117.998 130.852 118.658 133.587 119.926 136.059C121.194 138.531 123.034 140.67 125.296 142.301C127.557 143.932 130.176 145.008 132.938 145.442C135.699 145.876 138.525 145.655 141.184 144.797L143.476 144.059Z" fill="black"/>
<path d="M153.438 67.5312H141.625V63.625C141.619 61.5549 140.787 59.5713 139.312 58.1076C137.836 56.6438 135.837 55.8187 133.75 55.8125H102.25C100.163 55.8187 98.1639 56.6438 96.6884 58.1076C95.2129 59.5713 94.3812 61.5549 94.375 63.625V67.5312H82.5625C80.4758 67.5374 78.4764 68.3625 77.0009 69.8263C75.5254 71.2901 74.6937 73.2736 74.6875 75.3438V157.375C74.6937 159.445 75.5254 161.429 77.0009 162.892C78.4764 164.356 80.4758 165.181 82.5625 165.188H110.125V157.375H82.5625V75.3438H94.375V87.0625H141.625V75.3438H153.438V94.875H161.312V75.3438C161.306 73.2736 160.475 71.2901 158.999 69.8263C157.524 68.3625 155.524 67.5374 153.438 67.5312ZM133.75 79.25H102.25V63.625H133.75V79.25Z" fill="black"/>
</g>
<rect x="0.5" y="0.5" width="235" height="235" rx="69.5" stroke="black"/>
<defs>
<clipPath id="clip0_266_99">
<rect width="126" height="125" fill="white" transform="translate(55 48)"/>
</clipPath>
</defs>
</svg>
