<svg width="236" height="236" viewBox="0 0 236 236" fill="none" xmlns="http://www.w3.org/2000/svg">
<rect x="0.5" y="0.5" width="235" height="235" rx="69.5" stroke="black"/>
<path d="M77.1246 61.006L71 67.6842L84.4741 88.2599C85.0414 89.1264 85.7904 89.8324 86.6586 90.3192C87.5269 90.8059 88.4894 91.0593 89.4657 91.0581H89.8944C90.6997 91.0574 91.4971 91.2299 92.2412 91.5656C92.9853 91.9014 93.6613 92.3938 94.2306 93.0148L110.614 110.879L94.5858 128.603C91.8444 127.723 88.9527 127.552 86.14 128.103C83.3273 128.654 80.6711 129.912 78.382 131.777C76.0929 133.643 74.2339 136.064 72.9525 138.849C71.6712 141.635 71.0026 144.707 71 147.823C71.0037 150.694 71.5733 153.531 72.6702 156.142C73.7672 158.752 75.3659 161.074 77.358 162.952C79.3501 164.83 81.689 166.219 84.2164 167.025C86.7437 167.831 89.4004 168.035 92.0065 167.623C94.6125 167.212 97.107 166.195 99.3209 164.64C101.535 163.086 103.417 161.031 104.838 158.614C106.26 156.197 107.189 153.476 107.562 150.633C107.935 147.791 107.744 144.895 107 142.14L123.255 124.663L129.184 131.128L127.316 137.232C126.957 138.408 126.905 139.67 127.167 140.877C127.429 142.084 127.994 143.187 128.798 144.063L148.825 165.901C149.393 166.524 150.067 167.017 150.811 167.354C151.554 167.691 152.351 167.865 153.155 167.865C153.96 167.865 154.757 167.691 155.5 167.354C156.243 167.017 156.918 166.524 157.486 165.901L167.199 155.31C167.77 154.691 168.223 153.955 168.532 153.145C168.841 152.335 169 151.466 169 150.588C169 149.71 168.841 148.842 168.532 148.031C168.223 147.221 167.77 146.485 167.199 145.866L147.172 124.029C146.368 123.152 145.356 122.536 144.249 122.25C143.143 121.965 141.985 122.021 140.906 122.412L135.308 124.449L129.429 118.038L145.843 100.388C148.566 101.18 151.419 101.28 154.183 100.68C156.947 100.08 159.548 98.7959 161.785 96.9266C164.022 95.0573 165.835 92.6528 167.085 89.8985C168.335 87.1442 168.988 84.1137 168.994 81.0407C168.994 79.2443 168.779 77.5012 168.369 75.8517L155.262 90.1498L144.495 87.719L142.266 75.9853L155.379 61.6871C152.259 60.7726 148.974 60.7709 145.854 61.6822C142.734 62.5935 139.889 64.3855 137.607 66.8777C135.324 69.3698 133.685 72.4741 132.853 75.8775C132.022 79.2808 132.028 82.8631 132.871 86.2631L116.702 104.147L100.355 86.3366C99.2066 85.0844 98.5611 83.3861 98.5607 81.615V81.1409C98.5608 80.0774 98.328 79.0294 97.8816 78.0838C97.4353 77.1383 96.7883 76.3227 95.9945 75.7048L77.1246 61.006ZM136.203 132.103C136.487 131.792 136.825 131.545 137.197 131.377C137.569 131.208 137.968 131.122 138.371 131.122C138.773 131.122 139.172 131.208 139.544 131.377C139.916 131.545 140.254 131.792 140.539 132.103L158.386 151.57C158.944 152.199 159.252 153.043 159.245 153.918C159.238 154.794 158.916 155.631 158.349 156.251C157.781 156.87 157.013 157.221 156.21 157.228C155.407 157.236 154.633 156.899 154.056 156.291L136.203 136.831C135.917 136.521 135.691 136.152 135.537 135.746C135.382 135.341 135.303 134.906 135.303 134.467C135.303 134.028 135.382 133.593 135.537 133.187C135.691 132.781 135.917 132.413 136.203 132.103ZM89.3738 134.467L92.2585 136.083L95.4984 136.256L97.2562 139.228L99.9816 141.145L100.141 144.678L101.623 147.823L100.141 150.969L99.9816 154.501L97.2562 156.418L95.4984 159.39L92.2585 159.564L89.3738 161.18L86.4891 159.564L83.2492 159.39L81.4914 156.418L78.766 154.501L78.6068 150.969L77.1246 147.823L78.6068 144.678L78.766 141.145L81.4914 139.228L83.2492 136.256L86.4891 136.083L89.3738 134.467Z" fill="black"/>
</svg>
