<svg width="50" height="51" viewBox="0 0 50 51" fill="none" xmlns="http://www.w3.org/2000/svg">
<path d="M14.5 0.420898H35.5C43.5 0.420898 50 6.9209 50 14.9209V35.9209C50 39.7665 48.4723 43.4547 45.753 46.1739C43.0338 48.8932 39.3456 50.4209 35.5 50.4209H14.5C6.5 50.4209 0 43.9209 0 35.9209V14.9209C0 11.0753 1.52767 7.38713 4.24695 4.66785C6.96623 1.94857 10.6544 0.420898 14.5 0.420898ZM14 5.4209C11.6131 5.4209 9.32387 6.36911 7.63604 8.05694C5.94821 9.74476 5 12.0339 5 14.4209V36.4209C5 41.3959 9.025 45.4209 14 45.4209H36C38.3869 45.4209 40.6761 44.4727 42.364 42.7849C44.0518 41.097 45 38.8078 45 36.4209V14.4209C45 9.4459 40.975 5.4209 36 5.4209H14ZM38.125 9.1709C38.9538 9.1709 39.7487 9.50014 40.3347 10.0862C40.9208 10.6722 41.25 11.4671 41.25 12.2959C41.25 13.1247 40.9208 13.9196 40.3347 14.5056C39.7487 15.0917 38.9538 15.4209 38.125 15.4209C37.2962 15.4209 36.5013 15.0917 35.9153 14.5056C35.3292 13.9196 35 13.1247 35 12.2959C35 11.4671 35.3292 10.6722 35.9153 10.0862C36.5013 9.50014 37.2962 9.1709 38.125 9.1709ZM25 12.9209C28.3152 12.9209 31.4946 14.2379 33.8388 16.5821C36.183 18.9263 37.5 22.1057 37.5 25.4209C37.5 28.7361 36.183 31.9155 33.8388 34.2597C31.4946 36.6039 28.3152 37.9209 25 37.9209C21.6848 37.9209 18.5054 36.6039 16.1612 34.2597C13.817 31.9155 12.5 28.7361 12.5 25.4209C12.5 22.1057 13.817 18.9263 16.1612 16.5821C18.5054 14.2379 21.6848 12.9209 25 12.9209ZM25 17.9209C23.0109 17.9209 21.1032 18.7111 19.6967 20.1176C18.2902 21.5241 17.5 23.4318 17.5 25.4209C17.5 27.41 18.2902 29.3177 19.6967 30.7242C21.1032 32.1307 23.0109 32.9209 25 32.9209C26.9891 32.9209 28.8968 32.1307 30.3033 30.7242C31.7098 29.3177 32.5 27.41 32.5 25.4209C32.5 23.4318 31.7098 21.5241 30.3033 20.1176C28.8968 18.7111 26.9891 17.9209 25 17.9209Z" fill="white"/>
</svg>
