<svg width="50" height="50" viewBox="0 0 50 50" fill="none" xmlns="http://www.w3.org/2000/svg">
<path d="M36.9048 27.4589V36.9059H31.5473V28.0901C31.5473 25.8772 30.7723 24.367 28.8323 24.367C27.3523 24.367 26.4698 25.384 26.0823 26.3703C25.9423 26.723 25.9048 27.2136 25.9048 27.7042V36.9059H20.5448C20.5448 36.9059 20.6173 21.9778 20.5448 20.4318H25.9048V22.7648L25.8698 22.8185H25.9048V22.7648C26.6173 21.6405 27.8873 20.0434 30.7348 20.0434C34.2598 20.0434 36.9048 22.3994 36.9048 27.4589ZM14.9373 12.4873C13.1048 12.4873 11.9048 13.719 11.9048 15.3339C11.9048 16.9182 13.0698 18.1831 14.8673 18.1831H14.9023C16.7723 18.1831 17.9348 16.9157 17.9348 15.3339C17.8998 13.719 16.7723 12.4873 14.9373 12.4873ZM12.2223 36.9059H17.5823V20.4318H12.2223V36.9059Z" fill="white"/>
<path d="M25 45C30.3043 45 35.3914 42.8929 39.1421 39.1421C42.8929 35.3914 45 30.3043 45 25C45 19.6957 42.8929 14.6086 39.1421 10.8579C35.3914 7.10714 30.3043 5 25 5C19.6957 5 14.6086 7.10714 10.8579 10.8579C7.10714 14.6086 5 19.6957 5 25C5 30.3043 7.10714 35.3914 10.8579 39.1421C14.6086 42.8929 19.6957 45 25 45ZM25 50C11.1925 50 0 38.8075 0 25C0 11.1925 11.1925 0 25 0C38.8075 0 50 11.1925 50 25C50 38.8075 38.8075 50 25 50Z" fill="white"/>
</svg>
