<svg width="28" height="28" viewBox="0 0 28 28" fill="none" xmlns="http://www.w3.org/2000/svg">
<path fill-rule="evenodd" clip-rule="evenodd" d="M3.29947 0.892839C3.60567 0.58708 3.97334 0.349891 4.37813 0.19699C4.78292 0.044088 5.21558 -0.0210342 5.64744 0.0059384C6.0793 0.032911 6.5005 0.151363 6.88312 0.353443C7.26574 0.555524 7.60105 0.83662 7.86683 1.1781L11.008 5.21379C11.5837 5.95407 11.7867 6.91837 11.5592 7.82841L10.602 11.6611C10.5525 11.8596 10.5552 12.0675 10.6098 12.2647C10.6643 12.4619 10.769 12.6416 10.9135 12.7864L15.2131 17.0863C15.3581 17.2312 15.5381 17.336 15.7355 17.3906C15.933 17.4452 16.1413 17.4477 16.3401 17.3978L20.1707 16.4406C20.6198 16.3283 21.0885 16.3195 21.5414 16.415C21.9943 16.5106 22.4196 16.7078 22.7851 16.9918L26.8205 20.1315C28.2712 21.2603 28.4042 23.4041 27.1057 24.7009L25.2963 26.5105C24.0013 27.8056 22.0659 28.3743 20.2617 27.7391C15.6439 26.1142 11.4512 23.4703 7.99457 20.0037C4.52844 16.5473 1.88483 12.3549 0.259816 7.7374C-0.373664 5.93482 0.195068 3.99748 1.49003 2.70242L3.29947 0.892839Z" fill="white"/>
</svg>
