<svg width="28" height="26" viewBox="0 0 28 26" fill="none" xmlns="http://www.w3.org/2000/svg">
<path fill-rule="evenodd" clip-rule="evenodd" d="M3.29947 0.805645C3.60567 0.529747 3.97334 0.315721 4.37813 0.177752C4.78292 0.0397824 5.21558 -0.01898 5.64744 0.00535846C6.0793 0.0296969 6.5005 0.136581 6.88312 0.318926C7.26574 0.501272 7.60105 0.754916 7.86683 1.06305L11.008 4.70461C11.5837 5.3726 11.7867 6.24272 11.5592 7.06389L10.602 10.5223C10.5525 10.7014 10.5552 10.889 10.6098 11.0669C10.6643 11.2449 10.769 11.407 10.9135 11.5377L15.2131 15.4177C15.3581 15.5484 15.5381 15.643 15.7355 15.6922C15.933 15.7415 16.1413 15.7437 16.3401 15.6988L20.1707 14.835C20.6198 14.7337 21.0885 14.7258 21.5414 14.812C21.9943 14.8981 22.4196 15.0761 22.7851 15.3324L26.8205 18.1655C28.2712 19.184 28.4042 21.1185 27.1057 22.2887L25.2963 23.9215C24.0013 25.0901 22.0659 25.6033 20.2617 25.0301C15.6439 23.5639 11.4512 21.1782 7.99457 18.0502C4.52844 14.9313 1.88483 11.1483 0.259816 6.98178C-0.373664 5.35523 0.195068 3.60709 1.49003 2.43851L3.29947 0.805645Z" fill="black"/>
</svg>
