<svg width="32" height="34" viewBox="0 0 32 34" fill="none" xmlns="http://www.w3.org/2000/svg">
<path d="M27.3367 4.85259C25.8624 3.30834 24.1064 2.08395 22.1711 1.25083C20.2357 0.417704 18.1598 -0.00747069 16.0643 9.93336e-05C7.28442 9.93336e-05 0.128643 7.42057 0.128643 16.5252C0.128643 19.4434 0.868342 22.2782 2.25126 24.7795L0 33.3505L8.44221 31.0493C10.7739 32.3667 13.395 33.067 16.0643 33.067C24.8442 33.067 32 25.6466 32 16.5419C32 12.123 30.3437 7.97085 27.3367 4.85259ZM16.0643 30.2656C13.6844 30.2656 11.3528 29.5986 9.31055 28.348L8.82814 28.0478L3.81106 29.4152L5.14573 24.3459L4.82412 23.829C3.5019 21.6395 2.79982 19.1086 2.79799 16.5252C2.79799 8.95469 8.74774 2.78486 16.0482 2.78486C19.5859 2.78486 22.9146 4.21893 25.407 6.82026C26.6412 8.09419 27.6192 9.60946 28.2845 11.2783C28.9497 12.947 29.2889 14.7362 29.2824 16.5419C29.3146 24.1125 23.3648 30.2656 16.0643 30.2656ZM23.3327 19.9937C22.9307 19.7936 20.9688 18.7931 20.6151 18.643C20.2452 18.5096 19.9879 18.4429 19.7146 18.8431C19.4412 19.26 18.6854 20.1938 18.4603 20.4606C18.2352 20.7441 17.994 20.7774 17.592 20.5606C17.1899 20.3605 15.9035 19.9103 14.392 18.5096C13.202 17.409 12.4141 16.0583 12.1729 15.6414C11.9477 15.2246 12.1407 15.0078 12.3497 14.791C12.5266 14.6076 12.7518 14.3074 12.9447 14.074C13.1377 13.8405 13.2181 13.6571 13.3467 13.3903C13.4754 13.1068 13.4111 12.8734 13.3146 12.6733C13.2181 12.4732 12.4141 10.4388 12.0925 9.60502C11.7709 8.80461 11.4332 8.90466 11.192 8.88799H10.4201C10.1467 8.88799 9.72864 8.98804 9.35879 9.40492C9.00502 9.8218 7.97588 10.8223 7.97588 12.8567C7.97588 14.8911 9.40703 16.8587 9.6 17.1255C9.79296 17.409 12.4141 21.5778 16.402 23.3621C17.3508 23.7956 18.0905 24.0458 18.6693 24.2292C19.6181 24.546 20.4864 24.496 21.1779 24.3959C21.9497 24.2792 23.5417 23.3954 23.8633 22.4283C24.201 21.4611 24.201 20.644 24.0884 20.4606C23.9759 20.2772 23.7347 20.1938 23.3327 19.9937Z" fill="black"/>
</svg>
